<svg xmlns="http://www.w3.org/2000/svg" width="1000" height="620" viewBox="0 0 1000 620">
<rect width="1000" height="620" fill="none"/>
<text x="120" y="52" fill="#eef3fb" font-size="30" font-weight="700" font-family="Inter,sans-serif">what a group stops renting, per year</text>
<line x1="120" y1="520" x2="940" y2="520" stroke="#1e2a3d"/><text x="106" y="527" fill="#6b7d99" font-size="18" font-family="Inter,sans-serif" text-anchor="end">$0k</text><line x1="120" y1="438" x2="940" y2="438" stroke="#1e2a3d"/><text x="106" y="445" fill="#6b7d99" font-size="18" font-family="Inter,sans-serif" text-anchor="end">$60k</text><line x1="120" y1="356" x2="940" y2="356" stroke="#1e2a3d"/><text x="106" y="363" fill="#6b7d99" font-size="18" font-family="Inter,sans-serif" text-anchor="end">$120k</text><line x1="120" y1="274" x2="940" y2="274" stroke="#1e2a3d"/><text x="106" y="281" fill="#6b7d99" font-size="18" font-family="Inter,sans-serif" text-anchor="end">$180k</text><line x1="120" y1="192" x2="940" y2="192" stroke="#1e2a3d"/><text x="106" y="199" fill="#6b7d99" font-size="18" font-family="Inter,sans-serif" text-anchor="end">$240k</text><line x1="120" y1="110" x2="940" y2="110" stroke="#1e2a3d"/><text x="106" y="117" fill="#6b7d99" font-size="18" font-family="Inter,sans-serif" text-anchor="end">$300k</text>
<path d="M135.0,519.6 L141.2,519.3 L145.9,518.9 L149.9,518.6 L153.5,518.2 L156.7,517.8 L159.6,517.5 L162.3,517.1 L164.9,516.8 L167.3,516.4 L169.7,516.0 L171.9,515.7 L174.0,515.3 L176.0,514.9 L178.0,514.6 L179.9,514.2 L181.7,513.9 L183.5,513.5 L185.3,513.1 L187.0,512.8 L188.6,512.4 L190.2,512.1 L191.8,511.7 L193.3,511.3 L194.9,511.0 L196.3,510.6 L197.8,510.3 L199.2,509.9 L200.6,509.5 L202.0,509.2 L203.4,508.8 L204.7,508.5 L206.0,508.1 L207.3,507.7 L208.6,507.4 L209.8,507.0 L211.1,506.7 L212.3,506.3 L213.5,505.9 L214.7,505.6 L215.9,505.2 L217.0,504.8 L218.2,504.5 L219.3,504.1 L220.4,503.8 L221.5,503.4 L222.6,503.0 L223.7,502.7 L224.8,502.3 L225.9,502.0 L226.9,501.6 L228.0,501.2 L229.0,500.9 L230.0,500.5 L231.0,500.2 L232.0,499.8 L233.0,499.4 L234.0,499.1 L235.0,498.7 L236.0,498.4 L236.9,498.0 L237.9,497.6 L238.8,497.3 L239.8,496.9 L240.7,496.5 L241.6,496.2 L242.5,495.8 L244.4,495.1 L246.1,494.4 L247.9,493.7 L249.7,492.9 L251.4,492.2 L253.1,491.5 L254.7,490.8 L256.4,490.1 L258.0,489.3 L259.6,488.6 L261.2,487.9 L262.8,487.2 L264.4,486.4 L265.9,485.7 L267.4,485.0 L269.0,484.3 L270.5,483.6 L272.7,482.5 L274.9,481.4 L277.0,480.3 L279.1,479.2 L281.2,478.1 L283.3,477.1 L285.4,476.0 L287.4,474.9 L289.4,473.8 L291.4,472.7 L293.3,471.7 L295.9,470.2 L298.4,468.8 L300.9,467.3 L303.4,465.9 L305.8,464.4 L308.2,463.0 L310.6,461.6 L312.9,460.1 L315.2,458.7 L318.0,456.9 L320.9,455.1 L323.6,453.3 L326.4,451.4 L329.1,449.6 L331.7,447.8 L334.9,445.7 L338.0,443.5 L341.0,441.3 L344.1,439.2 L347.0,437.0 L350.0,434.9 L353.4,432.3 L356.7,429.8 L360.0,427.3 L363.3,424.7 L366.5,422.2 L370.1,419.3 L373.6,416.5 L377.1,413.6 L380.6,410.7 L384.4,407.4 L388.2,404.2 L392.0,400.9 L395.6,397.7 L399.7,394.1 L403.7,390.5 L407.6,386.9 L411.8,382.9 L416.0,378.9 L420.2,375.0 L424.6,370.6 L429.0,366.3 L433.3,362.0 L437.9,357.3 L442.5,352.6 L447.0,347.9 L451.7,342.8 L456.4,337.8 L461.4,332.4 L466.3,327.0 L471.4,321.2 L476.5,315.4 L481.8,309.3 L487.0,303.2 L492.5,296.7 L497.9,290.2 L503.4,283.3 L509.0,276.5 L514.7,269.2 L520.3,262.0 L526.2,254.5 L532.2,246.5 L538.1,238.6 L544.2,230.3 L550.5,221.6 L556.7,213.0 L563.1,203.9 L569.6,194.6 L576.3,184.8 L582.9,175.1 L589.6,165.0 L596.5,154.5 L603.5,143.7 L610.6,132.5 L617.9,121.0 L625.3,110.0 L632.7,110.0 L640.3,110.0 L648.0,110.0 L655.8,110.0 L663.7,110.0 L671.7,110.0 L679.8,110.0 L687.9,110.0 L696.3,110.0 L704.8,110.0 L713.4,110.0 L722.2,110.0 L731.1,110.0 L740.0,110.0 L749.1,110.0 L758.3,110.0 L767.7,110.0 L777.4,110.0 L787.0,110.0 L796.9,110.0 L806.9,110.0 L817.1,110.0 L827.5,110.0 L837.8,110.0 L848.4,110.0 L859.2,110.0 L870.2,110.0 L881.3,110.0 L892.6,110.0 L903.9,110.0 L915.6,110.0 L927.3,110.0 L939.3,110.0 L940.0,110.0" fill="none" stroke="#ff6b6b" stroke-width="5" stroke-linecap="round"/>
<path d="M135.0,519.3 L141.2,519.3 L145.9,519.3 L149.9,519.3 L153.5,519.3 L156.7,519.2 L159.6,519.2 L162.3,519.2 L164.9,519.2 L167.3,519.2 L169.7,519.2 L171.9,519.1 L174.0,519.1 L176.0,519.1 L178.0,519.1 L179.9,519.1 L181.7,519.1 L183.5,519.0 L185.3,519.0 L187.0,519.0 L188.6,519.0 L190.2,519.0 L191.8,519.0 L193.3,519.0 L194.9,518.9 L196.3,518.9 L197.8,518.9 L199.2,518.9 L200.6,518.9 L202.0,518.9 L203.4,518.8 L204.7,518.8 L206.0,518.8 L207.3,518.8 L208.6,518.8 L209.8,518.8 L211.1,518.7 L212.3,518.7 L213.5,518.7 L214.7,518.7 L215.9,518.7 L217.0,518.7 L218.2,518.6 L219.3,518.6 L220.4,518.6 L221.5,518.6 L222.6,518.6 L223.7,518.6 L224.8,518.5 L225.9,518.5 L226.9,518.5 L228.0,518.5 L229.0,518.5 L230.0,518.5 L231.0,518.4 L232.0,518.4 L233.0,518.4 L234.0,518.4 L235.0,518.4 L236.0,518.4 L236.9,518.3 L237.9,518.3 L238.8,518.3 L239.8,518.3 L240.7,518.3 L241.6,518.3 L242.5,518.2 L244.4,518.2 L246.1,518.2 L247.9,518.1 L249.7,518.1 L251.4,518.1 L253.1,518.0 L254.7,518.0 L256.4,518.0 L258.0,518.0 L259.6,517.9 L261.2,517.9 L262.8,517.9 L264.4,517.8 L265.9,517.8 L267.4,517.8 L269.0,517.7 L270.5,517.7 L272.7,517.6 L274.9,517.6 L277.0,517.5 L279.1,517.5 L281.2,517.4 L283.3,517.4 L285.4,517.3 L287.4,517.3 L289.4,517.2 L291.4,517.2 L293.3,517.1 L295.9,517.1 L298.4,517.0 L300.9,516.9 L303.4,516.9 L305.8,516.8 L308.2,516.8 L310.6,516.7 L312.9,516.6 L315.2,516.6 L318.0,516.5 L320.9,516.4 L323.6,516.3 L326.4,516.2 L329.1,516.1 L331.7,516.1 L334.9,516.0 L338.0,515.9 L341.0,515.8 L344.1,515.7 L347.0,515.6 L350.0,515.5 L353.4,515.4 L356.7,515.2 L360.0,515.1 L363.3,515.0 L366.5,514.9 L370.1,514.8 L373.6,514.6 L377.1,514.5 L380.6,514.4 L384.4,514.2 L388.2,514.1 L392.0,513.9 L395.6,513.8 L399.7,513.6 L403.7,513.5 L407.6,513.3 L411.8,513.1 L416.0,512.9 L420.2,512.8 L424.6,512.6 L429.0,512.4 L433.3,512.2 L437.9,511.9 L442.5,511.7 L447.0,511.5 L451.7,511.3 L456.4,511.1 L461.4,510.8 L466.3,510.6 L471.4,510.3 L476.5,510.0 L481.8,509.8 L487.0,509.5 L492.5,509.2 L497.9,508.9 L503.4,508.6 L509.0,508.3 L514.7,507.9 L520.3,507.6 L526.2,507.3 L532.2,506.9 L538.1,506.6 L544.2,506.2 L550.5,505.8 L556.7,505.4 L563.1,505.0 L569.6,504.6 L576.3,504.1 L582.9,503.7 L589.6,503.2 L596.5,502.7 L603.5,502.2 L610.6,501.7 L617.9,501.2 L625.3,500.7 L632.7,500.1 L640.3,499.5 L648.0,498.9 L655.8,498.3 L663.7,497.7 L671.7,497.1 L679.8,496.4 L687.9,495.7 L696.3,495.0 L704.8,494.3 L713.4,493.6 L722.2,492.8 L731.1,492.0 L740.0,491.2 L749.1,490.4 L758.3,489.5 L767.7,488.6 L777.4,487.7 L787.0,486.8 L796.9,485.8 L806.9,484.8 L817.1,483.8 L827.5,482.7 L837.8,481.6 L848.4,480.5 L859.2,479.4 L870.2,478.2 L881.3,476.9 L892.6,475.7 L903.9,474.4 L915.6,473.0 L927.3,471.7 L939.3,470.2 L940.0,470.1" fill="none" stroke="#5eead4" stroke-width="5" stroke-linecap="round"/>
<circle cx="135" cy="520" r="6" fill="#ff6b6b"/><circle cx="135" cy="519" r="6" fill="#5eead4"/><text x="135" y="554" fill="#9fb0cc" font-size="20" font-family="Inter,sans-serif" text-anchor="middle">you</text><circle cx="162" cy="517" r="6" fill="#ff6b6b"/><circle cx="162" cy="519" r="6" fill="#5eead4"/><text x="162" y="554" fill="#9fb0cc" font-size="20" font-family="Inter,sans-serif" text-anchor="middle">small</text><circle cx="215" cy="506" r="6" fill="#ff6b6b"/><circle cx="215" cy="519" r="6" fill="#5eead4"/><text x="215" y="554" fill="#9fb0cc" font-size="20" font-family="Inter,sans-serif" text-anchor="middle">medium</text><circle cx="419" cy="376" r="6" fill="#ff6b6b"/><circle cx="419" cy="513" r="6" fill="#5eead4"/><text x="419" y="554" fill="#9fb0cc" font-size="20" font-family="Inter,sans-serif" text-anchor="middle">neighborhood</text><circle cx="940" cy="110" r="6" fill="#ff6b6b"/><circle cx="940" cy="470" r="6" fill="#5eead4"/><text x="940" y="554" fill="#9fb0cc" font-size="20" font-family="Inter,sans-serif" text-anchor="middle">civic</text>
<text x="790" y="92" fill="#ff6b6b" font-size="22" font-weight="600" font-family="Inter,sans-serif">commercial (per seat)</text>
<text x="730" y="504" fill="#5eead4" font-size="22" font-weight="600" font-family="Inter,sans-serif">irl.coop (shared)</text>
<text x="120" y="600" fill="#6b7d99" font-size="19" font-family="Inter,sans-serif">estimate · irl.coop cost is shared across members, never passed to one user · labor unpriced</text>
</svg>